<?xml version="1.0" encoding="utf-8"?>
<!-- Generator: Adobe Illustrator 25.0.0, SVG Export Plug-In . SVG Version: 6.00 Build 0)  -->
<svg version="1.1" id="Lager_1" xmlns="http://www.w3.org/2000/svg" xmlns:xlink="http://www.w3.org/1999/xlink" x="0px" y="0px"
	 viewBox="0 0 25 21" style="enable-background:new 0 0 25 21;" xml:space="preserve">
<style type="text/css">
	.st0{fill:#1991BB;}
</style>
<path class="st0" d="M24.5,17.8v1.6c0,0.5-0.4,0.9-0.9,0.9H1.3c-0.5,0-0.9-0.4-0.9-0.9v-1.6c0-0.5,0.4-0.9,0.9-0.9h22.3
	C24,16.9,24.5,17.3,24.5,17.8z"/>
<path class="st0" d="M24.5,9.7v1.6c0,0.5-0.4,0.9-0.9,0.9H1.3c-0.5,0-0.9-0.4-0.9-0.9V9.7c0-0.5,0.4-0.9,0.9-0.9h22.3
	C24,8.8,24.5,9.2,24.5,9.7z"/>
<path class="st0" d="M24.5,1.6v1.6c0,0.5-0.4,0.9-0.9,0.9H1.3c-0.5,0-0.9-0.4-0.9-0.9V1.6c0-0.5,0.4-0.9,0.9-0.9h22.3
	C24,0.6,24.5,1.1,24.5,1.6z"/>
</svg>
