<?xml version="1.0" encoding="utf-8"?>
<!-- Generator: Adobe Illustrator 25.0.0, SVG Export Plug-In . SVG Version: 6.00 Build 0)  -->
<svg version="1.1" id="Lager_1" xmlns="http://www.w3.org/2000/svg" xmlns:xlink="http://www.w3.org/1999/xlink" x="0px" y="0px"
	 viewBox="0 0 16 16" style="enable-background:new 0 0 16 16;" xml:space="preserve">
<style type="text/css">
	.st0{fill:#4392B5;}
	.st1{fill:#FFFFFF;}
</style>
<path class="st0" d="M13.3,15.9H2.8c-1.5,0-2.6-1.2-2.6-2.6V2.8c0-1.5,1.2-2.6,2.6-2.6h10.5c1.5,0,2.6,1.2,2.6,2.6v10.5
	C15.9,14.7,14.7,15.9,13.3,15.9z"/>
<path class="st1" d="M7.1,10.3c-0.1,0-0.2-0.1-0.2-0.2V9.3c0-2,2.6-1.9,2.6-3.7c0-0.8-0.5-1.5-1.7-1.5c-0.8,0-1.4,0.3-2,0.8
	C5.8,5,5.6,5,5.6,4.9L4.9,4C4.9,3.9,4.9,3.8,5,3.7c0.5-0.5,1.6-1.1,2.9-1.1c1.7,0,3.3,1,3.3,3c0,2.5-2.6,2.2-2.6,4v0.4
	c0,0.1-0.1,0.2-0.2,0.2H7.1z"/>
<path class="st1" d="M7.7,13.6c-0.6,0-1-0.4-1-1.1c0-0.6,0.4-1.1,1-1.1c0.6,0,1.1,0.4,1.1,1.1C8.8,13.2,8.4,13.6,7.7,13.6z"/>
</svg>
