<?xml version="1.0" encoding="utf-8"?>
<!-- Generator: Adobe Illustrator 25.0.0, SVG Export Plug-In . SVG Version: 6.00 Build 0)  -->
<svg version="1.1" id="Lager_1" xmlns="http://www.w3.org/2000/svg" xmlns:xlink="http://www.w3.org/1999/xlink" x="0px" y="0px"
	 viewBox="0 0 291 74" style="enable-background:new 0 0 291 74;" xml:space="preserve">
<style type="text/css">
	.st0{fill:#4392B5;stroke:#4392B5;stroke-width:0.25;stroke-miterlimit:10;}
	.st1{fill:#4392B5;stroke:#4392B5;stroke-width:0.75;stroke-miterlimit:10;}
	.st2{fill:#221F20;stroke:#221F20;stroke-width:0.75;stroke-miterlimit:10;}
	.st3{fill:#4392B5;}
</style>
<path class="st0" d="M277.6,4.1h-43.8c-6.1,0-11,4.9-11,11v43.8c0,6.1,4.9,11,11,11h43.8c6.1,0,11-4.9,11-11V15
	C288.6,9,283.6,4.1,277.6,4.1z M270.5,56.7c0,1-0.6,1.6-1.6,1.6h-26.4c-0.9,0-1.6-0.6-1.6-1.6v-3.5c0-0.7,0.2-1.1,0.6-1.6l11.9-12.4
	c4.5-4.7,7.9-8.5,7.9-12.3c0-1.5-0.5-4.9-5.4-4.9c-4,0-6.7,2.3-8.9,4.5c-0.3,0.3-0.7,0.5-1.1,0.5c0,0,0,0,0,0
	c-0.5,0-0.9-0.2-1.2-0.7l-2.8-3.8c-0.5-0.6-0.5-1.4,0.1-2.1c4-4.3,8.5-6.4,13.8-6.4c8.4,0,13.9,5,13.9,12.7c0,6-3.6,10.6-8.4,16
	c-2,2.3-4.7,5.1-7.5,7.8h14.9c1,0,1.6,0.6,1.6,1.6V56.7z"/>
<path class="st1" d="M45.5,58.2c-0.6,0-1.1-0.5-1.1-1.1V24c0-0.6,0.2-1,0.8-1.2c3.7-1.8,8.2-2.7,12.6-2.7c2.2,0,4.6,0.1,7.3,0.6
	c0.6,0.1,0.9,0.5,0.9,1.1v5.2c0,0.6-0.4,1-1.2,0.9c-1.8-0.3-3.9-0.3-5.8-0.3c-1.8,0-6.3,1.5-6.3,2.4v27.3c0,0.6-0.5,1.1-1.1,1.1
	H45.5z"/>
<path class="st1" d="M86.1,59.1c-9.9,0-16.4-5.6-16.4-14.5v-9.6c0-9.1,6.5-14.8,16.4-14.8s16.4,5.8,16.4,14.8v9.6
	C102.5,53.5,96,59.1,86.1,59.1z M86.1,51.6c5.1,0,8-2.4,8-7.1v-9.6c0-4.8-2.9-7.3-8-7.3c-5.2,0-8,2.6-8,7.3v9.6
	C78.1,49.2,80.9,51.6,86.1,51.6z"/>
<path class="st2" d="M124.6,20.1c9.5,0,16.6,4.9,16.6,15.8v7.9c0,9.4-6.8,15.3-15.9,15.3c-2.9,0-5.5-0.6-7.6-1.6v13.3
	c0,0.7-0.4,1.1-1.1,1.1h-6.2c-0.7,0-1.1-0.4-1.1-1.1v-47c0-0.6,0.2-0.9,0.8-1.2C114.3,21,119.9,20.1,124.6,20.1z M132.7,43.8v-8.1
	c0-6.2-3.1-8.4-8.3-8.4c-1.7,0-3.6,0.1-5.1,0.5c-1,0.2-1.7,1.1-1.7,2.1v18.2c0,1,0.6,1.9,1.5,2.4c1.5,0.7,3.4,1.2,5.4,1.2
	C129.7,51.7,132.7,49.2,132.7,43.8z"/>
<path class="st3" d="M20.3,1.6c10.2,0,17.7,5.2,17.7,16.9V27c0,10.1-7.2,16.4-17,16.4c-3.1,0-6.9-0.7-9.2-1.7v15.4
	c0,0.8-0.4,1.2-1.2,1.2H4.1c-0.8,0-1.2-0.4-1.2-1.2V5.7c0-0.6,0.2-1,0.8-1.2C8.3,2.6,15.3,1.6,20.3,1.6z M29,27.1v-8.6
	c0-6.6-3.3-8.9-8.9-8.9c-1.9,0-4.8,0.2-6.5,0.5c-1,0.2-1.8,1.2-1.8,2.3v19.5c0,1.1,0.6,2.1,1.6,2.5c1.7,0.8,4.6,1.2,6.8,1.2
	C25.8,35.5,29,32.8,29,27.1z"/>
<path class="st2" d="M179.2,42.1c0,0.6-0.4,1-1.1,1h-21.9v2c0,4.4,3,6.6,7.6,6.6c4.5,0,7.5-1.5,10.2-3.3c0.5-0.4,1.1-0.3,1.4,0.2
	l3,4c0.4,0.5,0.4,1.1-0.2,1.5c-3.8,3-8.5,5-14.6,5c-8.1,0-15.8-4.5-15.8-14V34.8c0-10.6,7.9-14.8,15.8-14.8
	c7.8,0,15.6,4.2,15.6,14.8V42.1z M163.6,27.4c-4.2,0-7.4,2-7.4,7.3v0.5c0,0.7,0.6,1.3,1.3,1.3h12.2c0.7,0,1.3-0.6,1.3-1.3v-0.5
	C171.1,29.5,167.7,27.4,163.6,27.4z"/>
<path class="st2" d="M187.7,58.2c-0.6,0-1.1-0.5-1.1-1.1V24c0-0.6,0.2-1,0.8-1.2c3.7-1.8,8.2-2.7,12.6-2.7c2.2,0,4.6,0.1,7.3,0.6
	c0.6,0.1,0.9,0.5,0.9,1.1v5.2c0,0.6-0.4,1-1.2,0.9c-1.8-0.3-3.9-0.3-5.8-0.3c-1.8,0-3.6,0.2-4.9,0.6c-0.8,0.2-1.4,1-1.4,1.9v27.3
	c0,0.6-0.5,1.1-1.1,1.1H187.7z"/>
</svg>
