<?xml version="1.0" encoding="utf-8"?>
<!-- Generator: Adobe Illustrator 25.0.0, SVG Export Plug-In . SVG Version: 6.00 Build 0)  -->
<svg version="1.1" id="Lager_1" xmlns="http://www.w3.org/2000/svg" xmlns:xlink="http://www.w3.org/1999/xlink" x="0px" y="0px"
	 viewBox="0 0 116 30" style="enable-background:new 0 0 116 30;" xml:space="preserve">
<style type="text/css">
	.st0{fill:#FFFFFF;stroke:#FFFFFF;stroke-width:0.3013;stroke-miterlimit:10;}
	.st1{fill:#FFFFFF;stroke:#FFFFFF;stroke-width:0.1004;stroke-miterlimit:10;}
</style>
<path class="st0" d="M25.5,8.6c-1.1-0.2-2.1-0.2-3-0.2c-1.8,0-3.6,0.4-5.1,1.1c-0.2,0.1-0.3,0.3-0.3,0.5v13.3c0,0.2,0.2,0.4,0.4,0.4
	h2.5c0.2,0,0.4-0.2,0.4-0.4v-11c0-0.4,1.8-1,2.5-1c0.8,0,1.6,0,2.3,0.1c0.3,0.1,0.5-0.1,0.5-0.3V9.1C25.9,8.8,25.8,8.7,25.5,8.6z"/>
<path class="st0" d="M34,8.4c-4,0-6.6,2.3-6.6,6v3.9c0,3.6,2.6,5.8,6.6,5.8c4,0,6.6-2.3,6.6-5.8v-3.9C40.6,10.7,38,8.4,34,8.4z
	 M37.2,18.2c0,1.9-1.2,2.8-3.2,2.8c-2.1,0-3.2-1-3.2-2.8v-3.9c0-1.9,1.1-3,3.2-3c2.1,0,3.2,1,3.2,3V18.2z"/>
<path class="st0" d="M49.4,8.4c-1.9,0-4.1,0.4-5.8,1c-0.2,0.1-0.3,0.2-0.3,0.5v18.9c0,0.3,0.1,0.4,0.4,0.4h2.5
	c0.3,0,0.4-0.1,0.4-0.4v-5.4c0.9,0.4,1.9,0.6,3.1,0.6c3.7,0,6.4-2.4,6.4-6.2v-3.2C56.1,10.4,53.3,8.4,49.4,8.4z M52.7,17.9
	c0,2.2-1.2,3.2-3.3,3.2c-0.8,0-1.5-0.2-2.2-0.5c-0.4-0.2-0.6-0.5-0.6-0.9v-7.3c0-0.4,0.3-0.8,0.7-0.8c0.6-0.1,1.3-0.2,2-0.2
	c2.1,0,3.3,0.9,3.3,3.4V17.9z"/>
<path class="st0" d="M7.5,1c-2,0-4.8,0.4-6.7,1.1C0.6,2.2,0.6,2.4,0.6,2.6v20.7c0,0.3,0.2,0.5,0.5,0.5h2.7c0.3,0,0.5-0.2,0.5-0.5
	v-6.2c0.9,0.4,2.4,0.7,3.7,0.7c3.9,0,6.8-2.5,6.8-6.6V7.8C14.7,3.1,11.6,1,7.5,1z M11,11.2c0,2.3-1.3,3.4-3.5,3.4
	c-0.9,0-2.1-0.2-2.7-0.5c-0.4-0.2-0.6-0.6-0.6-1V5.3c0-0.4,0.3-0.8,0.7-0.9c0.7-0.1,1.8-0.2,2.6-0.2c2.2,0,3.6,0.9,3.6,3.6V11.2z"/>
<path class="st0" d="M65.1,8.4c-3.2,0-6.4,1.7-6.4,5.9v4.1c0,3.8,3.1,5.6,6.3,5.6c2.5,0,4.3-0.8,5.9-2c0.2-0.2,0.3-0.4,0.1-0.6
	l-1.2-1.6c-0.1-0.2-0.4-0.2-0.6-0.1c-1.1,0.7-2.3,1.3-4.1,1.3c-1.9,0-3.1-0.9-3.1-2.7v-0.8h8.8c0.3,0,0.4-0.1,0.4-0.4v-2.9
	C71.4,10.1,68.3,8.4,65.1,8.4z M68.1,14.5c0,0.3-0.2,0.5-0.5,0.5h-4.9c-0.3,0-0.5-0.2-0.5-0.5v-0.2c0-2.1,1.3-3,3-3c1.6,0,3,0.8,3,3
	V14.5z"/>
<path class="st0" d="M82.7,8.6c-1.1-0.2-2.1-0.2-3-0.2c-1.8,0-3.6,0.4-5.1,1.1c-0.2,0.1-0.3,0.3-0.3,0.5v13.3c0,0.2,0.2,0.4,0.4,0.4
	h2.5c0.2,0,0.4-0.2,0.4-0.4v-11c0-0.4,0.2-0.7,0.6-0.7c0.5-0.1,1.2-0.2,2-0.2c0.8,0,1.6,0,2.3,0.1c0.3,0.1,0.5-0.1,0.5-0.3V9.1
	C83.1,8.8,82.9,8.7,82.7,8.6z"/>
<path class="st1" d="M111,1.9H93.5c-2.4,0-4.4,2-4.4,4.4v17.6c0,2.4,2,4.4,4.4,4.4H111c2.4,0,4.4-2,4.4-4.4V6.3
	C115.4,3.9,113.5,1.9,111,1.9z M108.2,23c0,0.4-0.2,0.6-0.6,0.6H96.9c-0.4,0-0.6-0.3-0.6-0.6v-1.4c0-0.3,0.1-0.5,0.3-0.6l4.8-5
	c1.8-1.9,3.2-3.4,3.2-4.9c0-0.6-0.2-1.9-2.2-1.9c-1.6,0-2.7,0.9-3.6,1.8c-0.1,0.1-0.3,0.2-0.5,0.2c0,0,0,0,0,0
	c-0.2,0-0.3-0.1-0.5-0.3l-1.1-1.5c-0.2-0.2-0.2-0.6,0-0.8c1.6-1.7,3.4-2.6,5.6-2.6c3.4,0,5.6,2,5.6,5.1c0,2.4-1.5,4.3-3.4,6.4
	c-0.8,0.9-1.9,2-3,3.1h6c0.4,0,0.6,0.2,0.6,0.6V23z"/>
</svg>
